<svg height="469pt" viewBox="0 -35 469.74721 469" width="469pt" xmlns="http://www.w3.org/2000/svg"><path d="m460 77.875-40.699219 146c-6.027343 21.636719-25.738281 36.605469-48.199219 36.597656h-255l-.402343.101563-31.199219-182.699219zm0 0" fill="#00efd1"/><path d="m318.300781 346.773438c.054688-23.734376 19.332031-42.9375 43.066407-42.898438 23.734374.035156 42.949218 19.296875 42.933593 43.03125-.019531 23.734375-19.265625 42.96875-43 42.96875-11.429687.023438-22.394531-4.515625-30.46875-12.605469-8.070312-8.089843-12.582031-19.066406-12.53125-30.496093zm0 0" fill="#00acea"/><path d="m127.601562 330.074219c8.609376-20.355469 31.234376-30.878907 52.347657-24.347657 21.113281 6.527344 33.847656 27.988282 29.464843 49.648438-4.382812 21.660156-24.460937 36.480469-46.453124 34.285156-21.988282-2.191406-38.742188-20.6875-38.761719-42.785156-.023438-5.773438 1.132812-11.492188 3.402343-16.800781zm0 0" fill="#00acea"/><g fill="#083863"><path d="m233.398438 179.273438h68.101562c5.523438 0 10-4.476563 10-10 0-5.523438-4.476562-10-10-10h-68.101562c-5.519532 0-10 4.476562-10 10 0 5.523437 4.480468 10 10 10zm0 0"/><path d="m460 67.875h-367.101562l-3-17.601562c-4.847657-28.84375-29.847657-49.953126-59.097657-49.898438h-20.800781c-5.523438 0-10 4.476562-10 10s4.476562 10 10 10h20.699219c19.515625-.046875 36.191406 14.050781 39.402343 33.296875l4.398438 25.902344 31.199219 182.699219 11.402343 66.898437c-6.664062 18.734375-2.273437 39.625 11.375 54.085937 13.644532 14.464844 34.242188 20.0625 53.332032 14.5 19.089844-5.566406 33.453125-21.355468 37.191406-40.882812h90.101562c5.179688 26.789062 29.871094 45.257812 57.035157 42.65625 27.164062-2.601562 47.902343-25.417969 47.902343-52.707031 0-27.289063-20.738281-50.109375-47.902343-52.710938-27.164063-2.601562-51.855469 15.867188-57.035157 42.660157h-90.101562c-3.550781-18.316407-16.476562-33.417969-34.027344-39.75-17.550781-6.335938-37.140625-2.976563-51.574218 8.851562l-6.097657-35.402344h243.597657c26.921874-.050781 50.527343-17.980468 57.800781-43.898437l40.699219-146c.8125-3.007813.183593-6.21875-1.699219-8.699219-1.703125-2.574219-4.613281-4.089844-7.699219-4zm-98.800781 246c18.226562 0 33 14.773438 33 33 0 18.222656-14.773438 33-33 33-18.226563 0-33-14.777344-33-33 .019531-18.21875 14.78125-32.984375 33-33zm-194 0c18.226562 0 33 14.773438 33 33 0 18.222656-14.773438 33-33 33-18.226563 0-33-14.777344-33-33-.007813-3.964844.703125-7.894531 2.101562-11.601562.359375-.636719.660157-1.308594.898438-2 5.265625-11.84375 17.039062-19.457032 30-19.398438zm242.5-92.703125c-4.871094 17.257813-20.570313 29.203125-38.5 29.300781h-247.097657l-27.800781-162.597656h350.5zm0 0"/></g></svg>